# xmcd
#
# Track frame offsets:
#	150
#	16423
#	33012
#	53884
#	69008
#	85001
#	102995
#	122068
#
# Disc length: 1840 seconds
#
# Revision: 0
# Processed by: cddbd v1.4PL0 Copyright (c) Steve Scherf et al.
# Submitted via: EasyCDDAExtractor 4.6.9.1
#
DISCID=56072e08
DTITLE=Memphis La Blusera - Medais Negras
DYEAR=1900
DGENRE=Blues
TTITLE0=Háganse a un lado
TTITLE1=Nena segui de largo
TTITLE2=La bifurcada
TTITLE3=Esto pasa ahora
TTITLE4=Medias de seda negra
TTITLE5=Boogie del preso
TTITLE6=Montón de nada
TTITLE7=Chica free love
EXTD=
EXTT0=
EXTT1=
EXTT2=
EXTT3=
EXTT4=
EXTT5=
EXTT6=
EXTT7=
PLAYORDER=
